<svg xmlns="http://www.w3.org/2000/svg" width="25" height="16" viewBox="0 0 25 16" fill="none">
<path d="M20.5859 2.16672C20.5859 0.975024 19.4983 0 18.169 0H14.5437V2.16672H18.169V5.03763L13.9636 9.75024H9.70987V4.33344H4.87607C2.20539 4.33344 0.0422668 6.27266 0.0422668 8.66688V11.917H2.45917C2.45917 13.7153 4.07849 15.167 6.08452 15.167C8.09055 15.167 9.70987 13.7153 9.70987 11.917H15.1237L20.5859 5.79598V2.16672ZM6.08452 13.0003C5.41987 13.0003 4.87607 12.5128 4.87607 11.917H7.29297C7.29297 12.5128 6.74917 13.0003 6.08452 13.0003Z" fill="currentColor"/>
<path d="M9.70987 1.08337H3.6676V3.25007H9.70987V1.08337Z" fill="currentColor"/>
<path d="M20.586 8.66672C18.5799 8.66672 16.9606 10.1184 16.9606 11.9168C16.9606 13.7152 18.5799 15.1668 20.586 15.1668C22.592 15.1668 24.2113 13.7152 24.2113 11.9168C24.2113 10.1184 22.592 8.66672 20.586 8.66672ZM20.586 13.0001C19.9213 13.0001 19.3775 12.5126 19.3775 11.9168C19.3775 11.3209 19.9213 10.8334 20.586 10.8334C21.2506 10.8334 21.7944 11.3209 21.7944 11.9168C21.7944 12.5126 21.2506 13.0001 20.586 13.0001Z" fill="currentColor"/>
</svg>