<svg xmlns="http://www.w3.org/2000/svg" width="20" height="20" viewBox="0 0 20 20" fill="none">
<g clip-path="url(#clip0_580_147)">
<path fill-rule="evenodd" clip-rule="evenodd" d="M10.6059 0.394603L13.1727 5.84417C13.267 6.05002 13.4578 6.19526 13.6813 6.23141L19.4208 7.10529C19.6803 7.1556 19.8911 7.34454 19.9694 7.59698C20.0477 7.84943 19.9808 8.12447 19.7953 8.31276L15.6421 12.5546C15.4817 12.7209 15.4097 12.9534 15.4478 13.1812L16.4282 19.1709C16.4817 19.4284 16.3826 19.6937 16.1733 19.853C15.9641 20.0123 15.682 20.0372 15.448 19.9171L10.3144 17.0892C10.1188 16.9808 9.88122 16.9808 9.68565 17.0892L4.55206 19.9171C4.31811 20.0372 4.03597 20.0123 3.82673 19.853C3.61748 19.6937 3.51833 19.4284 3.57182 19.1709L4.55224 13.1812C4.59039 12.9534 4.51831 12.7209 4.35794 12.5546L0.204789 8.31276C0.0193165 8.12447 -0.0475762 7.84944 0.0307036 7.597C0.108983 7.34456 0.31975 7.15562 0.579213 7.10531L6.31873 6.23141C6.54227 6.19527 6.73306 6.05002 6.82741 5.84417L9.3942 0.394603C9.50022 0.154731 9.73777 -1.90735e-06 10 -1.90735e-06C10.2623 -1.90735e-06 10.4998 0.154731 10.6059 0.394603Z" fill="currentColor"/>
<path fill-rule="evenodd" clip-rule="evenodd" d="M12.5482 4.52071C10.8927 5.40589 9.36397 6.51008 8.00332 7.80346C6.55314 9.19176 5.32294 10.7929 4.35505 12.5517L0.203354 8.31381C0.0178905 8.12541 -0.0488223 7.85022 0.0297761 7.5978C0.108374 7.34538 0.319524 7.15672 0.579161 7.10691L6.31714 6.23105C6.54037 6.19397 6.73115 6.0496 6.82749 5.84484L9.39298 0.39312C9.50015 0.153949 9.73779 2.28882e-05 9.99988 2.28882e-05C10.262 2.28882e-05 10.4996 0.153949 10.6068 0.39312L12.5482 4.52071Z" fill="currentColor"/>
</g>
<defs>
<clipPath id="clip0_580_147">
<rect width="20" height="20" fill="white"/>
</clipPath>
</defs>
</svg>